<?xml version="1.0" encoding="utf-8"?>
<!-- Generator: Adobe Illustrator 19.1.0, SVG Export Plug-In . SVG Version: 6.00 Build 0)  -->
<svg version="1.1" id="Layer_1" xmlns="http://www.w3.org/2000/svg" xmlns:xlink="http://www.w3.org/1999/xlink" x="0px" y="0px"
	 viewBox="-154 156 290.5 290.5" style="enable-background:new -154 156 290.5 290.5;" xml:space="preserve">
<style type="text/css">
	.st0{fill:#3B97D3;}
	.st1{fill:none;}
	.st2{fill:#606161;}
	.st3{fill:#303030;}
	.st4{fill:url(#SVGID_1_);}
	.st5{fill:#9D9D9D;}
	.st6{fill:url(#SVGID_2_);}
	.st7{fill:url(#SVGID_3_);}
	.st8{fill:url(#SVGID_4_);}
</style>
<polygon class="st0" points="-41.4,370 -20.2,369.1 -20.5,368.1 -41.4,368.8 "/>
<line class="st1" x1="-39.6" y1="344.9" x2="-39.6" y2="359.9"/>
<g>
	<g>
		<path class="st2" d="M-144.9,384.3c-4.2-1.4-5.7-3.7-6.2-5.2l-0.1-0.3v-0.3l0.1-0.2l0.2-0.1l23.7-30.7V216c0-3.6,2.8-6.4,6.4-6.4
			c0.1,0,0.3,0,0.4,0l176.3,10.6c3.7,0.2,6.7,3.4,6.7,7.1l-0.4,109.9c0,2.2-1.1,4.2-2.8,5.5l2.5-0.1v26.2l-8.3,0.4v4.3L-144.9,384.3
			L-144.9,384.3z"/>
		<path class="st3" d="M61.7,337.2l0.4-109.9c0-3.5-2.8-6.5-6.3-6.7L-120.5,210c-3.5-0.2-6.3,2.5-6.3,6v119.1c0,3.5,0,7.9,0,9.7
			c0,1.3,0,2.4,0,3h-0.1l-24,30.7l0,0l0,0l-0.1,0.1h0.1c0.4,1.3,1.6,3.8,6,5.2L53,373.2v-4.3l8.3-0.4v-25.3l-3.7,0.1
			C60,342.3,61.7,339.9,61.7,337.2z"/>
		
			<linearGradient id="SVGID_1_" gradientUnits="userSpaceOnUse" x1="-121.2933" y1="380.2287" x2="48.707" y2="266.8955" gradientTransform="matrix(1 0 0 -1 0 605)">
			<stop  offset="0" style="stop-color:#CCCCCC"/>
			<stop  offset="1" style="stop-color:#606161"/>
		</linearGradient>
		<polygon class="st4" points="54,334.3 -118.6,338.9 -118.6,219.5 54,229.3 		"/>
		<polygon class="st2" points="-13,361.7 -60.3,363.4 -61.1,369.1 -13,367 		"/>
		<polygon class="st2" points="-13.7,367.9 -18.5,368.1 -37.7,368.8 -61,369.6 -61.4,371.1 -18.4,369.2 -13.2,368.9 		"/>
	</g>
	<path class="st2" d="M4.3,355.7c0,1.6-1.3,2.9-2.9,3l-121.6,5.1c-1.6,0.1-2.1-0.9-1.2-2.2l8-10.8c0.9-1.3,3-2.3,4.6-2.4l110.1-4.7
		c1.6-0.1,2.9,1.2,2.9,2.8v9.2H4.3z"/>
	<g>
		<g>
			<path class="st5" d="M-101.3,361.7c-0.1,0.4-0.6,0.7-1,0.7l-16.2,0.4c-0.4,0-0.7-0.3-0.6-0.6c0.1-0.4,0.6-0.7,1-0.7l16.2-0.4
				C-101.5,361.1-101.2,361.4-101.3,361.7z"/>
		</g>
		<g>
			<path class="st5" d="M-87.8,358.7c-0.1,0.4-0.6,0.7-1,0.7l-27.7,0.7c-0.5,0-0.7-0.3-0.6-0.6c0.1-0.4,0.6-0.7,1-0.7l27.7-0.7
				C-88,358-87.7,358.3-87.8,358.7z"/>
		</g>
		<g>
			<path class="st5" d="M-94.8,356.4c-0.1,0.4-0.6,0.7-1,0.7l-18.8,0.5c-0.5,0-0.7-0.3-0.6-0.6c0.1-0.4,0.6-0.7,1-0.7l18.8-0.5
				C-95,355.8-94.7,356.1-94.8,356.4z"/>
		</g>
		<g>
			<path class="st5" d="M-95.6,353.9c-0.1,0.4-0.6,0.7-1,0.7l-16.2,0.4c-0.5,0-0.7-0.3-0.6-0.6c0.1-0.4,0.6-0.7,1-0.7l16.2-0.4
				C-95.8,353.2-95.5,353.5-95.6,353.9z"/>
		</g>
		<g>
			<path class="st5" d="M-101.8,351.9c-0.1,0.4-0.6,0.7-1,0.7l-8.6,0.1c-0.5,0-0.7-0.3-0.6-0.7c0.1-0.4,0.6-0.7,1-0.7l8.6-0.1
				C-102,351.2-101.7,351.5-101.8,351.9z"/>
		</g>
		<g>
			<path class="st5" d="M-101.1,349.9c-0.1,0.4-0.6,0.7-1,0.7h-8.1c-0.5,0-0.7-0.3-0.6-0.7s0.6-0.7,1-0.7h8.1
				C-101.3,349.2-101,349.5-101.1,349.9z"/>
		</g>
		<g>
			<path class="st5" d="M-90.6,349.7c-0.1,0.4-0.6,0.7-1,0.7h-8.1c-0.5,0-0.7-0.3-0.6-0.7c0.1-0.4,0.6-0.7,1-0.7h8.1
				C-90.7,349.1-90.4,349.4-90.6,349.7z"/>
		</g>
		<g>
			<path class="st5" d="M-91.1,351.8c-0.1,0.4-0.6,0.7-1,0.7h-8.1c-0.5,0-0.7-0.3-0.6-0.7c0.1-0.4,0.6-0.7,1-0.7h8.1
				C-91.3,351.1-91,351.4-91.1,351.8z"/>
		</g>
		<g>
			<path class="st5" d="M-83.7,356.2c-0.1,0.4-0.6,0.7-1,0.7l-8.2,0.1c-0.5,0-0.7-0.3-0.6-0.7c0.1-0.4,0.6-0.7,1-0.7l8.2-0.1
				C-83.9,355.5-83.6,355.8-83.7,356.2z"/>
		</g>
		<g>
			<path class="st5" d="M-84.8,353.7c-0.1,0.4-0.6,0.7-1,0.7l-8.2,0.1c-0.5,0-0.7-0.3-0.6-0.7c0.1-0.4,0.6-0.7,1-0.7l8.2-0.1
				C-84.9,353-84.6,353.3-84.8,353.7z"/>
		</g>
		<g>
			<path class="st5" d="M-80.5,351.2c-0.1,0.4-0.6,0.7-1,0.7l-7.8,0.1c-0.5,0-0.7-0.3-0.6-0.7c0.1-0.4,0.6-0.7,1-0.7l7.8-0.1
				C-80.6,350.6-80.3,350.9-80.5,351.2z"/>
		</g>
		<g>
			<path class="st5" d="M-80.6,349.4c-0.1,0.4-0.6,0.7-1,0.7l-7.8,0.1c-0.5,0-0.7-0.3-0.6-0.7c0.1-0.4,0.6-0.7,1-0.7l7.8-0.1
				C-80.7,348.7-80.5,349-80.6,349.4z"/>
		</g>
		<g>
			<path class="st5" d="M-89.2,361.2c-0.1,0.4-0.6,0.7-1,0.7l-8.6,0.1c-0.5,0-0.7-0.3-0.6-0.7c0.1-0.4,0.6-0.7,1-0.7l8.6-0.1
				C-89.3,360.6-89.1,360.8-89.2,361.2z"/>
		</g>
		<g>
			<path class="st5" d="M-76.8,358.2c-0.1,0.4-0.6,0.7-1,0.7l-8.6,0.1c-0.5,0-0.7-0.3-0.6-0.7c0.1-0.4,0.6-0.7,1-0.7l8.6-0.1
				C-76.9,357.5-76.7,357.8-76.8,358.2z"/>
		</g>
		<g>
			<path class="st5" d="M-74,353.1c-0.1,0.4-0.6,0.7-1,0.7l-8.2,0.1c-0.5,0-0.7-0.3-0.6-0.7s0.6-0.7,1-0.7l8.2-0.1
				C-74.2,352.5-73.9,352.8-74,353.1z"/>
		</g>
		<g>
			<path class="st5" d="M-69.9,350.8c-0.1,0.4-0.6,0.7-1,0.7l-8.2,0.1c-0.5,0-0.7-0.3-0.6-0.7c0.1-0.4,0.6-0.7,1-0.7l8.2-0.1
				C-70.1,350.1-69.8,350.4-69.9,350.8z"/>
		</g>
		<g>
			<path class="st5" d="M-69.9,348.8c-0.1,0.4-0.6,0.7-1,0.7l-8.2,0.1c-0.5,0-0.7-0.3-0.6-0.7c0.1-0.4,0.6-0.7,1-0.7l8.2-0.1
				C-70.1,348.2-69.8,348.5-69.9,348.8z"/>
		</g>
		<g>
			<path class="st5" d="M-72.9,355.7c-0.1,0.4-0.6,0.7-1,0.7l-8.2,0.1c-0.4,0-0.7-0.3-0.6-0.7c0.1-0.4,0.6-0.7,1-0.7l8.2-0.1
				C-73.1,355-72.8,355.3-72.9,355.7z"/>
		</g>
		<g>
			<path class="st5" d="M-78,360.8c-0.1,0.4-0.6,0.7-1,0.7l-8.2,0.1c-0.5,0-0.7-0.3-0.6-0.7c0.1-0.4,0.6-0.7,1-0.7l8.2-0.1
				C-78.2,360.1-77.9,360.4-78,360.8z"/>
		</g>
		<g>
			<path class="st5" d="M-59.7,348.5c-0.1,0.4-0.6,0.7-1,0.7l-8.2,0.1c-0.4,0-0.7-0.3-0.6-0.7s0.6-0.7,1-0.7l8.2-0.1
				C-59.8,347.8-59.6,348.1-59.7,348.5z"/>
		</g>
		<g>
			<path class="st5" d="M-59.2,350.5c-0.1,0.4-0.6,0.7-1,0.7l-8.2,0.1c-0.5,0-0.7-0.3-0.6-0.7s0.6-0.7,1-0.7l8.2-0.1
				C-59.3,349.9-59.1,350.2-59.2,350.5z"/>
		</g>
		<g>
			<path class="st5" d="M-63.1,353c-0.1,0.4-0.6,0.7-1,0.7l-8.2,0.1c-0.5,0-0.7-0.3-0.6-0.7s0.6-0.7,1-0.7l8.2-0.1
				C-63.3,352.3-63,352.6-63.1,353z"/>
		</g>
		<g>
			<path class="st5" d="M-61.9,355.4c-0.1,0.4-0.6,0.7-1,0.7l-8.2,0.1c-0.5,0-0.7-0.3-0.6-0.7s0.6-0.7,1-0.7l8.2-0.1
				C-62,354.8-61.8,355.1-61.9,355.4z"/>
		</g>
		<g>
			<path class="st5" d="M-65.7,357.8c-0.1,0.4-0.6,0.7-1,0.7l-8.2,0.1c-0.5,0-0.7-0.3-0.6-0.7c0.1-0.4,0.6-0.7,1-0.7l8.2-0.1
				C-65.9,357.1-65.6,357.4-65.7,357.8z"/>
		</g>
		<g>
			<path class="st5" d="M-66.2,360.3c-0.1,0.4-0.6,0.7-1,0.7l-8.2,0.1c-0.5,0-0.7-0.3-0.6-0.7c0.1-0.4,0.6-0.7,1-0.7l8.2-0.1
				C-66.3,359.6-66.1,359.9-66.2,360.3z"/>
		</g>
		<g>
			<path class="st5" d="M-48.5,350.1c-0.1,0.4-0.6,0.7-1,0.7l-8.2,0.1c-0.5,0-0.7-0.3-0.6-0.7s0.6-0.7,1-0.7l8.2-0.1
				C-48.7,349.4-48.4,349.7-48.5,350.1z"/>
		</g>
		<g>
			<path class="st5" d="M-48.9,347.9c-0.1,0.4-0.6,0.7-1,0.7l-8.2,0.1c-0.5,0-0.7-0.3-0.6-0.7s0.6-0.7,1-0.7l8.2-0.1
				C-49.1,347.2-48.8,347.5-48.9,347.9z"/>
		</g>
		<g>
			<path class="st5" d="M-51.9,352.4c-0.1,0.4-0.6,0.7-1,0.7l-8.2,0.1c-0.5,0-0.7-0.3-0.6-0.7s0.6-0.7,1-0.7l8.2-0.1
				C-52,351.7-51.7,352-51.9,352.4z"/>
		</g>
		<g>
			<path class="st5" d="M-50.8,354.7c-0.1,0.4-0.6,0.7-1,0.7l-8.2,0.1c-0.5,0-0.7-0.3-0.6-0.7c0.1-0.4,0.6-0.7,1-0.7l8.2-0.1
				C-51,354-50.7,354.3-50.8,354.7z"/>
		</g>
		<g>
			<path class="st5" d="M-55.1,357.5c-0.1,0.4-0.6,0.7-1,0.7l-8.2,0.1c-0.5,0-0.7-0.3-0.6-0.7s0.6-0.7,1-0.7l8.2-0.1
				C-55.2,356.8-54.9,357.1-55.1,357.5z"/>
		</g>
		<g>
			<path class="st5" d="M-44,356.9c-0.1,0.4-0.6,0.7-1,0.7l-8.2,0.1c-0.5,0-0.7-0.3-0.6-0.7s0.6-0.7,1-0.7l8.2-0.1
				C-44.1,356.2-43.8,356.5-44,356.9z"/>
		</g>
		<g>
			<path class="st5" d="M-40,354.4c-0.1,0.4-0.6,0.7-1,0.7l-8.2,0.1c-0.5,0-0.7-0.3-0.6-0.7s0.6-0.7,1-0.7l8.2-0.1
				C-40.1,353.7-39.9,354-40,354.4z"/>
		</g>
		<g>
			<path class="st5" d="M-41.6,352.2c-0.1,0.4-0.6,0.7-1,0.7l-8.2,0.1c-0.5,0-0.7-0.3-0.6-0.7c0.1-0.4,0.6-0.7,1-0.7l8.2-0.1
				C-41.8,351.6-41.5,351.9-41.6,352.2z"/>
		</g>
		<g>
			<path class="st5" d="M-38.3,349.7c-0.1,0.4-0.6,0.7-1,0.7l-8.2,0.1c-0.5,0-0.7-0.3-0.6-0.7c0.1-0.4,0.6-0.7,1-0.7l8.2-0.1
				C-38.5,349-38.2,349.3-38.3,349.7z"/>
		</g>
		<g>
			<path class="st5" d="M-37.3,347.8c-0.1,0.4-0.6,0.7-1,0.7l-8.2,0.1c-0.5,0-0.7-0.3-0.6-0.7c0.1-0.4,0.6-0.7,1-0.7l8.2-0.1
				C-37.5,347.1-37.2,347.4-37.3,347.8z"/>
		</g>
		<g>
			<path class="st5" d="M-17.6,358.1c-0.1,0.4-0.6,0.7-1,0.7l-45.4,1.7c-0.5,0-0.7-0.3-0.6-0.6c0.1-0.4,0.6-0.7,1-0.7l45.4-1.7
				C-17.7,357.4-17.5,357.7-17.6,358.1z"/>
		</g>
	</g>
	<g>
		
			<rect x="-100.4" y="324.6" transform="matrix(-5.849891e-02 -0.9983 0.9983 -5.849891e-02 -481.0555 297.6912)" class="st2" width="0.5" height="102.1"/>
	</g>
</g>
<g>
	<g>
		<path class="st2" d="M22.9,383.7C14.7,383,8,375.7,8,367.4V256.6c0-8.2,6.7-15.7,14.9-16.5l96.2-9.9c8.2-0.8,14.9,5.2,14.9,13.5
			v134.5c0,8.2-6.7,14.4-14.9,13.7L22.9,383.7z"/>
	</g>
	<g>
		<path class="st3" d="M132.3,376.8c0,8.2-6.7,14.4-14.9,13.7l-94.1-8c-8.2-0.7-14.9-8-14.9-16.3V256.9c0-8.2,6.7-15.7,14.9-16.5
			l94.1-9.6c8.2-0.8,14.9,5.2,14.9,13.5V376.8z"/>
	</g>
	
		<linearGradient id="SVGID_2_" gradientUnits="userSpaceOnUse" x1="120.5206" y1="354.3521" x2="24.52" y2="235.0184" gradientTransform="matrix(1 0 0 -1 0 605)">
		<stop  offset="0" style="stop-color:#CCCCCC"/>
		<stop  offset="1" style="stop-color:#606161"/>
	</linearGradient>
	<polygon class="st6" points="19.1,253.4 19.1,369.9 118,377.1 118,245.7 	"/>
</g>
<g>
	<g>
		<path class="st2" d="M-49.4,286.6c0-3.4,2.7-5.9,6.1-5.6l39.2,3.2c3.4,0.3,6.1,3.2,6.1,6.6v82.7c0,3.4-2.7,6.4-6.1,6.7l-39.2,3.5
			c-3.3,0.3-6.1-2.2-6.1-5.6V286.6z"/>
	</g>
	<g>
		<path class="st3" d="M1.5,373.2c0,3.4-2.7,6.4-6.1,6.7l-38.4,3.4c-3.3,0.3-6.1-2.2-6.1-5.6V287c0-3.4,2.7-5.9,6.1-5.6l38.3,3.1
			c3.4,0.3,6.1,3.2,6.1,6.6v82.1H1.5z"/>
	</g>
	<g>
		
			<linearGradient id="SVGID_3_" gradientUnits="userSpaceOnUse" x1="-41.7111" y1="302.0118" x2="-5.711" y2="241.0117" gradientTransform="matrix(1 0 0 -1 0 605)">
			<stop  offset="0" style="stop-color:#CCCCCC"/>
			<stop  offset="1" style="stop-color:#606161"/>
		</linearGradient>
		<polygon class="st7" points="-1.7,366.2 -45,368.6 -45,296.7 -1.7,299.6 		"/>
	</g>
	<g>
		<path class="st5" d="M-17,292.3C-17,292.3-17.1,292.3-17,292.3l-8.5-0.4c-0.5,0-0.8-0.4-0.8-0.9c0-0.4,0.4-0.8,0.9-0.8l8.5,0.4
			c0.4,0,0.8,0.4,0.8,0.9C-16.2,292-16.6,292.3-17,292.3z"/>
	</g>
	<g>
		<ellipse class="st5" cx="-21.3" cy="286.3" rx="0.9" ry="1"/>
	</g>
</g>
<g>
	<path class="st2" d="M-13,393c-3.6,0-6.6-3-6.6-6.6v-77.2c0-3.6,3-6.6,6.6-6.6h39.8c3.6,0,6.6,3,6.6,6.6v77.2c0,3.6-3,6.6-6.6,6.6
		H-13z"/>
	<path class="st3" d="M33,385.9c0,3.6-3,6.6-6.6,6.6h-39c-3.6,0-6.6-3-6.6-6.6v-76.3c0-3.6,3-6.6,6.6-6.6h39c3.6,0,6.6,3,6.6,6.6
		V385.9z"/>
	
		<linearGradient id="SVGID_4_" gradientUnits="userSpaceOnUse" x1="27.6719" y1="292.7714" x2="-16.9948" y2="222.1045" gradientTransform="matrix(1 0 0 -1 0 605)">
		<stop  offset="0" style="stop-color:#CCCCCC"/>
		<stop  offset="1" style="stop-color:#606161"/>
	</linearGradient>
	<rect x="-16.8" y="309.9" class="st8" width="47.2" height="70.7"/>
	<path class="st5" d="M23.4,386.5l-0.8-0.7c0.1-0.1,0.1-0.2,0.1-0.4c0-0.4-0.3-0.8-0.8-0.8c-0.4,0-0.8,0.3-0.8,0.8
		c0,0.4,0.3,0.8,0.8,0.8c0.1,0,0.3,0,0.4-0.1l0.8,0.7h0.1c0.1,0,0.1,0,0.1-0.1C23.3,386.7,23.4,386.6,23.4,386.5
		C23.4,386.6,23.4,386.6,23.4,386.5z M21.9,385.9c-0.2,0-0.4-0.2-0.4-0.4s0.2-0.4,0.4-0.4s0.4,0.2,0.4,0.4c0,0.1,0,0.2-0.1,0.3
		C22.1,385.8,22,385.9,21.9,385.9z"/>
	<path class="st5" d="M11,384.8l-1.2,1.1l0.3,0.3l0.1-0.1v0.7H12v-0.7l0.1,0.1l0.3-0.3L11,384.8z M11,385.3l0.5,0.4v0.7h-0.9v-0.7
		L11,385.3z"/>
	<g>
		<rect x="0.3" y="384.8" class="st5" width="1.5" height="2.1"/>
		
			<rect x="0.3" y="386.1" transform="matrix(-1 5.299844e-03 -5.299844e-03 -1 4.152 772.5933)" class="st2" width="1.5" height="0.4"/>
		<polygon class="st5" points="0.3,384.8 -0.1,385.2 1.3,385.2 1.7,384.8 		"/>
		<polyline class="st2" points="1.4,385.4 1.7,384.8 1.3,385.2 -0.1,385.2 		"/>
	</g>
	<path class="st5" d="M-7.1,386.7c0-0.1,0-0.1-0.1-0.2c0,0,0-0.1-0.1-0.2c0-0.1-0.1-0.1-0.1-0.2s-0.1-0.1-0.1-0.2l-0.1-0.1l-0.1-0.1
		c0-0.1-0.1-0.1-0.2-0.2c-0.1-0.1-0.1-0.1-0.2-0.1c-0.1,0-0.1-0.1-0.2-0.1c-0.1,0-0.1-0.1-0.2-0.1c-0.1,0-0.1,0-0.2,0h-0.1V385
		c0-0.2-0.1-0.2-0.2-0.1l-0.8,0.6c-0.1,0.1-0.1,0.2,0,0.3l0.7,0.5c0.1,0.1,0.2,0,0.2-0.1V386l0,0c0,0,0,0,0.1,0h0.1h0.1
		c0,0,0.1,0,0.2,0c0.1,0,0.1,0,0.2,0.1c0.1,0,0.1,0,0.2,0.1l0.1,0.1l0.1,0.1c0.1,0,0.1,0.1,0.1,0.1l0.1,0.1l0.1,0.1
		C-7.2,386.6-7.2,386.7-7.1,386.7C-7.1,386.8-7.1,386.8-7.1,386.7C-7.1,386.8-7.1,386.8-7.1,386.7z"/>
</g>
</svg>
